<?xml version="1.0" encoding="utf-8" ?>
<svg baseProfile="full" height="840" version="1.1" viewBox="0 0 856 840" width="856" xmlns="http://www.w3.org/2000/svg" xmlns:ev="http://www.w3.org/2001/xml-events" xmlns:xlink="http://www.w3.org/1999/xlink"><defs /><path d="M 273 24 L 270 32 L 257 32 L 254 40 L 233 40 L 232 46 L 230 48 L 225 48 L 222 56 L 209 56 L 206 64 L 193 64 L 192 70 L 190 72 L 185 72 L 182 80 L 169 80 L 168 86 L 166 88 L 161 88 L 160 94 L 158 96 L 153 96 L 152 102 L 150 104 L 145 104 L 144 110 L 142 112 L 137 112 L 134 120 L 121 120 L 120 134 L 118 136 L 113 136 L 112 142 L 110 144 L 105 144 L 104 150 L 102 152 L 97 152 L 96 158 L 94 160 L 89 160 L 86 168 L 80 169 L 80 182 L 78 184 L 73 184 L 70 192 L 64 193 L 64 206 L 62 208 L 57 208 L 54 216 L 48 217 L 48 230 L 40 233 L 40 246 L 32 249 L 32 262 L 24 265 L 24 286 L 16 289 L 16 310 L 8 313 L 8 350 L 6 352 L 0 352 L 0 511 L 6 511 L 8 513 L 8 542 L 16 545 L 16 574 L 24 577 L 24 590 L 32 593 L 32 614 L 40 617 L 40 630 L 46 631 L 48 633 L 48 638 L 56 641 L 56 654 L 64 657 L 64 670 L 70 671 L 72 673 L 72 678 L 80 681 L 80 694 L 86 695 L 88 697 L 88 702 L 94 703 L 96 705 L 96 710 L 102 711 L 104 713 L 104 718 L 110 719 L 112 721 L 112 726 L 118 727 L 120 729 L 120 734 L 126 735 L 128 737 L 128 742 L 134 743 L 136 745 L 136 750 L 142 751 L 144 753 L 144 758 L 150 759 L 152 761 L 152 766 L 160 769 L 161 775 L 174 775 L 176 777 L 176 782 L 184 785 L 185 791 L 198 791 L 200 793 L 200 798 L 208 801 L 209 807 L 230 807 L 233 815 L 246 815 L 249 823 L 270 823 L 273 831 L 318 831 L 320 833 L 320 839 L 335 839 L 335 833 L 337 831 L 342 831 L 344 833 L 344 839 L 359 839 L 359 833 L 361 831 L 398 831 L 399 825 L 401 823 L 406 823 L 407 817 L 409 815 L 414 815 L 415 809 L 417 807 L 422 807 L 423 801 L 425 799 L 430 799 L 431 793 L 433 791 L 438 791 L 439 785 L 441 783 L 446 783 L 447 777 L 449 775 L 454 775 L 455 769 L 457 767 L 462 767 L 463 761 L 465 759 L 470 759 L 471 753 L 473 751 L 478 751 L 481 743 L 487 742 L 487 729 L 489 727 L 494 727 L 495 721 L 497 719 L 502 719 L 503 713 L 505 711 L 510 711 L 511 705 L 513 703 L 518 703 L 519 697 L 521 695 L 526 695 L 527 689 L 529 687 L 534 687 L 535 681 L 537 679 L 542 679 L 543 673 L 545 671 L 550 671 L 553 663 L 559 662 L 559 649 L 561 647 L 566 647 L 567 641 L 569 639 L 574 639 L 575 633 L 577 631 L 582 631 L 583 625 L 585 623 L 590 623 L 591 617 L 593 615 L 598 615 L 599 609 L 601 607 L 606 607 L 607 601 L 609 599 L 614 599 L 617 591 L 623 590 L 623 577 L 625 575 L 630 575 L 631 569 L 633 567 L 638 567 L 639 561 L 641 559 L 646 559 L 649 551 L 655 550 L 655 537 L 663 534 L 663 505 L 671 502 L 671 465 L 663 462 L 663 441 L 655 438 L 655 425 L 647 422 L 647 409 L 641 408 L 639 406 L 639 401 L 631 398 L 630 392 L 617 392 L 614 384 L 593 384 L 590 376 L 393 376 L 390 384 L 377 384 L 376 390 L 374 392 L 369 392 L 366 400 L 360 401 L 360 422 L 352 425 L 352 438 L 360 441 L 360 462 L 366 463 L 369 471 L 382 471 L 385 479 L 550 479 L 552 481 L 552 486 L 560 489 L 560 502 L 568 505 L 568 518 L 560 521 L 560 534 L 552 537 L 552 550 L 550 552 L 545 552 L 544 558 L 542 560 L 537 560 L 536 566 L 534 568 L 529 568 L 528 574 L 526 576 L 521 576 L 520 582 L 518 584 L 513 584 L 510 592 L 504 593 L 504 606 L 502 608 L 497 608 L 496 614 L 494 616 L 489 616 L 488 622 L 486 624 L 481 624 L 480 630 L 478 632 L 473 632 L 472 638 L 470 640 L 465 640 L 464 646 L 462 648 L 457 648 L 456 654 L 454 656 L 449 656 L 448 662 L 446 664 L 441 664 L 438 672 L 432 673 L 432 686 L 430 688 L 425 688 L 424 694 L 422 696 L 417 696 L 416 702 L 414 704 L 409 704 L 408 710 L 406 712 L 401 712 L 398 720 L 385 720 L 382 728 L 305 728 L 302 720 L 281 720 L 278 712 L 265 712 L 262 704 L 249 704 L 246 696 L 233 696 L 231 694 L 231 689 L 225 688 L 223 686 L 223 681 L 217 680 L 215 678 L 215 673 L 209 672 L 207 670 L 207 665 L 201 664 L 199 662 L 199 657 L 193 656 L 191 654 L 191 649 L 185 648 L 183 646 L 183 641 L 177 640 L 175 638 L 175 633 L 169 632 L 167 630 L 167 625 L 159 622 L 159 609 L 153 608 L 151 606 L 151 601 L 143 598 L 143 585 L 135 582 L 135 569 L 127 566 L 127 553 L 119 550 L 119 529 L 111 526 L 111 489 L 103 486 L 103 369 L 111 366 L 111 337 L 119 334 L 119 321 L 127 318 L 127 297 L 135 294 L 135 281 L 137 279 L 142 279 L 145 271 L 151 270 L 151 257 L 159 254 L 159 241 L 161 239 L 166 239 L 167 233 L 169 231 L 174 231 L 175 225 L 177 223 L 182 223 L 185 215 L 191 214 L 191 201 L 193 199 L 198 199 L 201 191 L 214 191 L 215 185 L 217 183 L 222 183 L 223 177 L 225 175 L 230 175 L 233 167 L 246 167 L 247 161 L 249 159 L 254 159 L 257 151 L 270 151 L 273 143 L 286 143 L 289 135 L 302 135 L 305 127 L 326 127 L 329 119 L 350 119 L 353 111 L 398 111 L 401 103 L 446 103 L 449 111 L 502 111 L 505 119 L 526 119 L 529 127 L 550 127 L 553 135 L 574 135 L 577 143 L 590 143 L 592 145 L 592 150 L 600 153 L 601 159 L 614 159 L 616 161 L 616 166 L 622 167 L 624 169 L 624 174 L 632 177 L 633 183 L 646 183 L 648 185 L 648 190 L 654 191 L 656 193 L 656 198 L 662 199 L 664 201 L 664 206 L 672 209 L 672 222 L 678 223 L 680 225 L 680 230 L 686 231 L 688 233 L 688 238 L 696 241 L 696 254 L 702 255 L 704 257 L 704 262 L 712 265 L 712 278 L 720 281 L 720 294 L 728 297 L 728 318 L 736 321 L 736 334 L 744 337 L 744 366 L 752 369 L 752 494 L 744 497 L 744 526 L 736 529 L 736 550 L 728 553 L 728 566 L 720 569 L 720 582 L 712 585 L 712 598 L 710 600 L 705 600 L 702 608 L 696 609 L 696 622 L 694 624 L 689 624 L 688 630 L 686 632 L 681 632 L 680 638 L 678 640 L 673 640 L 672 646 L 670 648 L 665 648 L 662 656 L 656 657 L 656 670 L 654 672 L 649 672 L 648 678 L 646 680 L 641 680 L 640 686 L 638 688 L 633 688 L 632 694 L 630 696 L 625 696 L 624 702 L 622 704 L 617 704 L 616 710 L 614 712 L 609 712 L 608 718 L 606 720 L 601 720 L 600 726 L 598 728 L 593 728 L 592 734 L 590 736 L 585 736 L 584 742 L 582 744 L 577 744 L 576 750 L 574 752 L 569 752 L 568 758 L 566 760 L 561 760 L 560 766 L 558 768 L 553 768 L 552 774 L 550 776 L 545 776 L 544 782 L 542 784 L 537 784 L 534 792 L 528 793 L 528 806 L 520 809 L 520 830 L 528 833 L 528 839 L 575 839 L 575 833 L 577 831 L 598 831 L 601 823 L 614 823 L 617 815 L 630 815 L 633 807 L 646 807 L 647 801 L 649 799 L 654 799 L 657 791 L 670 791 L 671 785 L 673 783 L 678 783 L 681 775 L 694 775 L 695 769 L 697 767 L 702 767 L 703 761 L 705 759 L 710 759 L 711 753 L 713 751 L 718 751 L 719 745 L 721 743 L 726 743 L 727 737 L 729 735 L 734 735 L 735 729 L 737 727 L 742 727 L 743 721 L 745 719 L 750 719 L 751 713 L 753 711 L 758 711 L 759 705 L 761 703 L 766 703 L 769 695 L 775 694 L 775 681 L 777 679 L 782 679 L 785 671 L 791 670 L 791 657 L 793 655 L 798 655 L 801 647 L 807 646 L 807 633 L 815 630 L 815 617 L 823 614 L 823 593 L 831 590 L 831 577 L 839 574 L 839 553 L 847 550 L 847 513 L 849 511 L 855 511 L 855 344 L 849 344 L 847 342 L 847 313 L 839 310 L 839 289 L 831 286 L 831 265 L 823 262 L 823 249 L 815 246 L 815 233 L 807 230 L 807 217 L 799 214 L 799 201 L 793 200 L 791 198 L 791 193 L 783 190 L 783 177 L 777 176 L 775 174 L 775 169 L 769 168 L 767 166 L 767 161 L 761 160 L 759 158 L 759 153 L 753 152 L 751 150 L 751 145 L 743 142 L 743 129 L 737 128 L 735 126 L 735 121 L 727 118 L 726 112 L 713 112 L 711 110 L 711 105 L 705 104 L 703 102 L 703 97 L 697 96 L 695 94 L 695 89 L 687 86 L 686 80 L 673 80 L 671 78 L 671 73 L 663 70 L 662 64 L 649 64 L 647 62 L 647 57 L 639 54 L 638 48 L 625 48 L 622 40 L 601 40 L 598 32 L 585 32 L 582 24 L 561 24 L 558 16 L 537 16 L 534 8 L 489 8 L 487 6 L 487 0 L 368 0 L 368 6 L 366 8 L 321 8 L 318 16 L 297 16 L 294 24 Z" fill="#f2f2f2" fill-rule="evenodd" /><path d="M 593 198 L 575 205 L 564 215 L 554 233 L 554 254 L 560 268 L 567 278 L 585 289 L 588 288 L 594 291 L 606 291 L 609 289 L 614 289 L 620 284 L 624 284 L 632 278 L 641 266 L 645 256 L 645 233 L 636 215 L 627 207 L 606 198 Z M 510 198 L 501 198 L 496 200 L 492 198 L 442 196 L 436 198 L 416 199 L 403 196 L 391 196 L 389 198 L 377 198 L 375 200 L 372 198 L 355 200 L 353 202 L 333 206 L 323 210 L 321 213 L 315 214 L 312 217 L 309 216 L 302 222 L 291 226 L 279 233 L 259 250 L 255 251 L 249 260 L 243 263 L 240 267 L 241 268 L 231 275 L 226 284 L 212 301 L 204 315 L 188 349 L 182 369 L 183 371 L 180 375 L 181 379 L 178 385 L 178 393 L 176 395 L 176 408 L 174 411 L 176 442 L 174 447 L 174 455 L 177 467 L 176 474 L 179 480 L 178 485 L 180 487 L 180 496 L 192 534 L 196 542 L 200 545 L 200 550 L 215 576 L 220 580 L 230 594 L 241 605 L 250 611 L 253 616 L 257 617 L 273 629 L 299 641 L 313 643 L 315 645 L 320 643 L 323 645 L 347 645 L 354 643 L 384 617 L 384 614 L 410 590 L 412 585 L 424 574 L 427 568 L 437 558 L 430 552 L 418 552 L 414 555 L 403 554 L 401 556 L 396 554 L 369 554 L 366 556 L 356 554 L 354 552 L 345 552 L 336 548 L 333 549 L 326 546 L 322 541 L 318 540 L 312 535 L 309 535 L 308 531 L 287 509 L 287 505 L 281 495 L 275 476 L 275 469 L 272 463 L 273 457 L 271 454 L 270 436 L 273 428 L 272 410 L 273 403 L 275 401 L 275 394 L 281 374 L 289 358 L 297 346 L 302 342 L 302 339 L 317 324 L 346 304 L 352 303 L 369 295 L 376 295 L 379 292 L 395 293 L 402 291 L 419 291 L 422 293 L 454 293 L 473 290 L 508 291 L 515 290 L 520 287 L 523 282 L 529 278 L 529 263 L 527 258 L 527 252 L 529 250 L 529 217 L 524 207 L 520 203 Z" fill="#ff9e00" fill-rule="evenodd" /></svg>